<?xml version="1.0" encoding="UTF-8"?>
<svg xmlns="http://www.w3.org/2000/svg" width="24" height="25" viewBox="0 0 24 25" fill="none">
  <g id="Icon" clip-path="url(#clip0_440_3371)">
    <path id="Vector" d="M1 24.6482H23V3.64819C23 2.85254 22.6839 2.08948 22.1213 1.52687C21.5587 0.964264 20.7956 0.648193 20 0.648193L4 0.648193C3.20435 0.648193 2.44129 0.964264 1.87868 1.52687C1.31607 2.08948 1 2.85254 1 3.64819V24.6482ZM3 3.64819C3 3.38298 3.10536 3.12862 3.29289 2.94109C3.48043 2.75355 3.73478 2.64819 4 2.64819H20C20.2652 2.64819 20.5196 2.75355 20.7071 2.94109C20.8946 3.12862 21 3.38298 21 3.64819V22.6482H3V3.64819ZM5 10.6482H19V4.64819H5V10.6482ZM7 6.64819H17V8.64819H7V6.64819ZM5 13.6482H7V15.6482H5V13.6482ZM9 13.6482H11V15.6482H9V13.6482ZM15 13.6482V15.6482H13V13.6482H15ZM5 17.6482H7V19.6482H5V17.6482ZM9 17.6482H11V19.6482H9V17.6482ZM17 13.6482H19V15.6482H17V13.6482ZM13 17.6482H19V19.6482H13V17.6482Z" fill="white"></path>
  </g>
  <defs>
    <clipPath id="clip0_440_3371">
      <rect width="24" height="24" fill="white" transform="translate(0 0.648193)"></rect>
    </clipPath>
  </defs>
</svg>
