<?xml version="1.0" encoding="UTF-8"?>
<svg xmlns="http://www.w3.org/2000/svg" width="24" height="25" viewBox="0 0 24 25" fill="none">
  <g id="01 align center">
    <path id="Vector" d="M0 3.64819V11.6482H11V0.648193H3C2.20435 0.648193 1.44129 0.964264 0.87868 1.52687C0.31607 2.08948 0 2.85254 0 3.64819ZM9 9.64819H2V3.64819C2 3.38298 2.10536 3.12862 2.29289 2.94109C2.48043 2.75355 2.73478 2.64819 3 2.64819H9V9.64819Z" fill="white"></path>
    <path id="Vector_2" d="M0 21.6482C0 22.4438 0.31607 23.2069 0.87868 23.7695C1.44129 24.3321 2.20435 24.6482 3 24.6482H11V13.6482H0V21.6482ZM2 15.6482H9V22.6482H3C2.73478 22.6482 2.48043 22.5428 2.29289 22.3553C2.10536 22.1678 2 21.9134 2 21.6482V15.6482Z" fill="white"></path>
    <path id="Vector_3" d="M13 13.6482V24.6482H21C21.7956 24.6482 22.5587 24.3321 23.1213 23.7695C23.6839 23.2069 24 22.4438 24 21.6482V13.6482H13ZM22 21.6482C22 21.9134 21.8946 22.1678 21.7071 22.3553C21.5196 22.5428 21.2652 22.6482 21 22.6482H15V15.6482H22V21.6482Z" fill="white"></path>
    <path id="Vector_4" d="M17 11.6482H19V7.64819H23V5.64819H19V1.64819H17V5.64819H13V7.64819H17V11.6482Z" fill="white"></path>
  </g>
</svg>
