<?xml version="1.0" encoding="UTF-8"?>
<svg xmlns="http://www.w3.org/2000/svg" width="24" height="25" viewBox="0 0 24 25" fill="none">
  <g id="Icon">
    <path id="Vector" d="M21 1.64844H3C1.346 1.64844 0 2.99444 0 4.64844V23.6484H24V4.64844C24 2.99444 22.654 1.64844 21 1.64844ZM22 21.6484H2V4.64844C2 4.09744 2.449 3.64844 3 3.64844H21C21.551 3.64844 22 4.09744 22 4.64844V21.6484ZM10 6.64844H19V8.64844H10V6.64844ZM8 7.64844C8 8.47644 7.328 9.14844 6.5 9.14844C5.672 9.14844 5 8.47644 5 7.64844C5 6.82044 5.672 6.14844 6.5 6.14844C7.328 6.14844 8 6.82044 8 7.64844ZM10 11.6484H19V13.6484H10V11.6484ZM8 12.6484C8 13.4764 7.328 14.1484 6.5 14.1484C5.672 14.1484 5 13.4764 5 12.6484C5 11.8204 5.672 11.1484 6.5 11.1484C7.328 11.1484 8 11.8204 8 12.6484ZM10 16.6484H19V18.6484H10V16.6484ZM8 17.6484C8 18.4764 7.328 19.1484 6.5 19.1484C5.672 19.1484 5 18.4764 5 17.6484C5 16.8204 5.672 16.1484 6.5 16.1484C7.328 16.1484 8 16.8204 8 17.6484Z" fill="white"></path>
  </g>
</svg>
