<?xml version="1.0" encoding="UTF-8"?>
<svg xmlns="http://www.w3.org/2000/svg" width="24" height="25" viewBox="0 0 24 25" fill="none">
  <g id="Icon" clip-path="url(#clip0_484_3424)">
    <path id="Vector" d="M9.99999 21.8844L6.75499 15.3934L0.263992 12.1484L6.75499 8.90344L9.99999 2.41244L13.245 8.90344L19.736 12.1484L13.245 15.3934L9.99999 21.8844ZM4.73599 12.1484L8.24499 13.9034L9.99999 17.4124L11.755 13.9034L15.264 12.1484L11.755 10.3934L9.99999 6.88444L8.24499 10.3934L4.73599 12.1484ZM18 21.6484L19.5 24.6484L21 21.6484L24 20.1484L21 18.6484L19.5 15.6484L18 18.6484L15 20.1484L18 21.6484ZM19.333 5.31544L20.5 7.64844L21.667 5.31544L24 4.14844L21.667 2.98144L20.5 0.648438L19.333 2.98144L17 4.14844L19.333 5.31544Z" fill="white"></path>
  </g>
  <defs>
    <clipPath id="clip0_484_3424">
      <rect width="24" height="24" fill="white" transform="translate(0 0.648438)"></rect>
    </clipPath>
  </defs>
</svg>
