<?xml version="1.0" encoding="UTF-8"?>
<svg xmlns="http://www.w3.org/2000/svg" width="100" height="13" viewBox="0 0 100 13" fill="none">
  <g id="Vector">
    <path d="M26.3732 12.0902L26.9374 12.5679H30.4205L29.9422 12.0902H26.3732ZM98.7496 9.736C98.683 10.4406 98.8804 10.6331 99.3122 11.0605L99.366 11.1164L99.4502 11.0421C99.2977 10.8192 99.2456 10.4613 99.2921 9.95008L99.9269 0.858507L99.4566 0.386396L98.7496 9.736ZM94.8692 12.0902L95.3876 12.5679H99.9687L99.492 12.0902H94.8692ZM94.1918 7.16533L94.8026 7.33149L95.5554 6.2267L95.6653 5.09315L95.5634 5.06519L94.1918 7.16533ZM93.0201 8.81653L92.7857 9.12648C92.3523 9.68407 91.6268 10.6139 92.1814 11.0533L92.5754 11.4559L92.6557 11.3752C92.5546 11.2674 92.5128 11.1372 92.5128 10.9974C92.5128 10.5284 92.9807 9.9373 93.2881 9.54028L93.4751 9.29583C93.5305 9.29583 95.4005 9.29583 95.4005 9.29583V8.81653H93.0201ZM89.0546 12.0902L89.5321 12.5679H93.0931L92.5714 12.0902H89.0546ZM83.3291 12.0566L83.8058 12.5367H88.7913L88.3114 12.0566H83.3291ZM84.2913 1.09496C83.0931 1.22997 82.8636 2.01762 82.7127 2.53767L82.2295 4.21523L82.9671 3.59773L83.2841 2.60477C83.5506 1.90339 83.9727 1.60782 84.695 1.60782H84.8307L84.317 1.09337L84.2913 1.09496ZM89.3844 1.09496C88.4238 1.16526 87.5337 1.84428 87.0883 2.2389L84.3299 4.74246L87.1083 10.3008C87.2151 10.5876 87.4695 10.9382 87.8242 10.9382H87.9141C87.9141 10.9382 85.0674 5.05081 85.0297 4.97572C85.0931 4.9198 87.6276 2.65749 87.6276 2.65749C88.053 2.28044 88.8965 1.64057 89.7897 1.60862L89.9157 1.60063L89.4077 1.09417L89.3844 1.09496ZM81.3331 7.1893L80.382 10.395C80.3499 10.5444 80.3748 10.6922 80.4575 10.8096C80.5465 10.9382 80.6878 11.0117 80.862 11.0309L80.9246 11.0397V10.9806C80.9246 10.7793 80.9246 10.689 80.9864 10.526C80.9896 10.5205 81.7536 7.73171 81.7809 7.63026L81.9719 7.48407L81.6477 6.9137L81.3331 7.1893ZM76.0088 12.0902L76.4855 12.5679H81.8684L81.3917 12.0902H76.0088ZM77.3411 1.09496C76.4197 1.09496 75.744 1.31305 75.4575 2.40346L73.3933 9.42764C73.1445 10.169 73.0939 10.6331 73.2311 10.8288C73.2809 10.8991 73.3539 10.9382 73.447 10.9382H73.443L73.9077 10.9686L73.9326 10.8584C73.5754 10.7194 73.8106 10.0132 73.9133 9.71203L73.9318 9.65691L75.9968 2.63033C76.2592 1.67412 76.8852 1.60702 77.7392 1.60702H77.874L77.3636 1.09417H77.3411V1.09496ZM70.9173 1.09496C69.8186 1.09496 69.2536 1.4864 69.0345 2.40346L67.8692 6.21072L67.9639 6.26824L68.6741 5.52692L69.439 3.00339C69.6621 2.3108 70.057 1.60862 71.3186 1.60862H71.4518L70.9414 1.09576H70.9173V1.09496ZM66.7167 10.3415C66.6356 10.4853 66.6605 10.5796 66.6958 10.6379C66.7825 10.7929 67.0265 10.8344 67.1597 10.8344H67.1862L70.5281 7.03992L70.939 5.6755L70.8427 5.62278L66.7167 10.3415ZM68.7448 12.0902L69.2673 12.5679H74.6132L74.1372 12.0902H68.7448ZM62.301 12.0902L62.7769 12.5679H68.1597L67.6814 12.0902H62.301ZM63.1549 3.93483C63.0899 3.93483 62.7239 3.93483 62.7239 3.93483L63.2448 4.41254H63.6067L64.5249 1.09816L64.0313 0.640426C64.0313 0.641225 63.1774 3.85255 63.1549 3.93483ZM57.6188 10.3279C57.5899 10.4198 57.5995 10.4997 57.6461 10.5692C57.7504 10.7449 58.0369 10.7985 58.1934 10.8272L58.3138 10.8496L58.2945 10.7649C58.2279 10.4813 58.26 10.3567 58.3603 10.0923L60.764 1.60382L60.3106 1.10615L57.6188 10.3279ZM52.9743 12.0902L53.4968 12.5679H59.4061L58.9286 12.0902H52.9743ZM56.6172 1.46483C55.6966 1.86824 54.4005 2.76454 53.764 3.96519L53.744 4.00194L54.1934 4.45008L54.2295 4.38139C54.6862 3.46272 55.4502 2.69344 56.3692 2.22852L56.3868 2.22132L56.7504 1.40491L56.6172 1.46483ZM52.6806 1.09496C51.7054 1.09496 51.114 1.30027 50.7969 2.40186L48.7665 9.42764C48.5217 10.169 48.4671 10.6331 48.6051 10.8288C48.6501 10.8991 48.7271 10.9382 48.821 10.9382H48.8162L49.4326 10.979L49.3258 10.8727C49.0345 10.5732 49.1509 10.1067 49.3066 9.65691L51.3371 2.63033C51.5955 1.67572 52.2512 1.60702 53.077 1.60702H53.2143L52.703 1.09417H52.6806V1.09496ZM44.0979 12.0902L44.5754 12.5679H50.0666L49.5449 12.0902H44.0979ZM39.5819 10.3839C39.6011 10.4685 39.6501 10.534 39.7295 10.5868C39.829 10.6571 39.9695 10.6858 40.0835 10.6634L40.138 10.6523L40.1268 10.5955C40.0987 10.4653 40.2528 10.387 40.3467 10.3663C40.5128 10.3 40.6726 10.3 40.8668 10.3H40.9952L40.8058 10.0907C40.6918 9.96047 40.569 9.81748 40.3331 9.81748C39.9254 9.88218 39.5417 9.97884 39.5819 10.3839ZM45.6116 2.83324L42.4478 10.9894C42.1091 11.9496 41.1372 12.2427 40.325 12.3961L39.6742 12.4393L39.805 12.5263C39.9302 12.6094 40.26 12.6382 40.3339 12.6382C41.7151 12.7492 42.7022 12.1573 43.1854 10.9335L46.0474 3.3397C46.264 2.78451 46.5048 2.39228 46.752 1.97449L47.1846 1.22598L47.0987 1.22198C46.4101 1.18763 45.8379 2.21733 45.6116 2.83324ZM36.1886 9.736C36.1549 10.4669 36.2014 10.8176 36.7841 11.1252L36.9462 11.2154L36.8579 11.0485C36.7327 10.824 36.7488 10.3823 36.76 10.0539L36.7673 9.84224L37.3002 0.858507L36.8274 0.385596L36.1886 9.736ZM32.2504 12.0902L32.7271 12.5679H37.3419L36.8628 12.0902H32.2504ZM31.5618 7.16533L32.1725 7.33149L32.9278 6.2267L33.0361 5.09315L32.935 5.06519L31.5618 7.16533ZM30.3555 8.81653L30.0794 9.26708C29.7849 9.73679 29.4952 10.1977 29.4952 10.6211C29.4952 10.9039 29.6212 11.1643 29.9454 11.416L29.9478 11.4215V11.4199L29.9534 11.4263L30.0257 11.3401C29.955 11.269 29.9262 11.1723 29.9262 11.0597C29.9262 10.6067 30.4326 9.89097 30.7038 9.50593L30.8483 9.29583C30.9053 9.29583 32.7392 9.29583 32.7392 9.29583V8.81653H30.3555ZM27.7376 3.95001L28.2624 4.43251L27.8772 1.08937L27.3523 0.606076L27.7376 3.95001ZM23.0875 1.32343H22.9229L21.9928 4.6442H22.6075C22.6075 4.6442 23.3515 1.88661 23.3732 1.80273C24.13 1.80433 24.4623 1.81232 25.1653 2.19576L25.2335 2.11029C24.4502 1.32183 24.0522 1.32343 23.0875 1.32343ZM21.5915 6.04456L20.3162 10.3271C20.3002 10.4454 20.3226 10.5284 20.382 10.5947C20.4623 10.6858 20.6027 10.7321 20.801 10.7321H20.8435C20.8435 10.7321 21.9799 6.61493 22.0064 6.52946C22.2416 6.54703 22.7191 6.72358 22.8692 6.81384L23.0225 6.90811L22.9486 6.74195C22.7376 6.28741 22.114 6.04536 21.6324 6.04536H21.5915V6.04456ZM26.569 7.70056C26.569 10.9422 23.6766 12.0902 20.9671 12.0902H15.8732L16.3844 12.6022H21.0329C22.6517 12.6022 26.4719 12.2356 27.012 8.81254C26.9117 8.39235 26.7793 7.95698 26.6758 7.67899L26.569 7.70056Z" fill="white"></path>
    <path d="M32.0128 11.2778L31.8812 11.7467H36.3082L36.4406 11.2778C35.5425 11.2778 35.5754 10.5404 35.6437 9.90775L36.3748 0.113192C35.6437 0.412757 34.8122 0.776229 34.0457 0.845728L28.1549 9.67209C27.6902 10.3767 27.0562 11.1427 26.1589 11.277L26.0265 11.7459H29.4197L29.5522 11.277C28.1549 11.277 28.7881 10.2417 29.1878 9.60339L29.9205 8.47223H33.4149L33.3162 9.80709C33.2809 10.677 33.0144 11.2778 32.0128 11.2778ZM33.4462 7.63106H30.5177L33.5465 3.11762L33.8146 3.05531L33.4462 7.63106ZM43.8636 11.3488L43.6974 11.7467H49.0225L49.1501 11.3488C48.0241 11.3816 47.8202 10.9478 48.0931 9.90775L50.3186 2.17979C50.6148 1.11653 51.0538 0.745873 52.1814 0.745873L52.2825 0.344855H43.6003L43.4631 0.745873C44.8587 0.745873 44.4952 1.85067 44.1637 2.68386L41.2656 10.1746C41.0353 10.7449 40.3018 11.213 39.9013 11.1779C39.4366 11.1443 39.0377 10.7769 39.0377 10.3439C39.0048 9.70644 39.6734 9.47797 39.9695 9.47797C39.9695 8.94275 39.3684 8.47383 38.7713 8.50898C38.1388 8.53374 37.4727 9.13927 37.4727 9.97805C37.4727 11.0429 38.2729 11.9504 39.4021 11.9815C40.736 12.0135 41.6701 11.5446 42.1011 10.4118L45.0289 2.7853C45.5289 1.45124 46.2584 0.847324 47.0947 0.879278C47.8555 0.913628 48.0931 1.67812 47.9229 2.28204L45.7592 9.90855C45.4607 10.9806 44.9631 11.3488 43.8636 11.3488ZM62.768 3.58973L63.63 0.344855H54.0144L52.9847 3.58973H53.3836C54.0441 2.17979 55.9783 0.878479 57.5385 0.846525L54.8459 9.90775C54.512 11.1092 53.9141 11.2778 52.7464 11.2778L52.6806 11.7467H58.439L58.5377 11.2778C57.4414 11.2778 56.9093 11.1435 57.2416 9.90775L59.8724 0.846525C61.3989 0.846525 62.4294 2.11668 62.4294 3.58973H62.768ZM70.4173 0.745073C69.4526 0.745073 68.8515 1.4137 68.6581 2.17899L66.8579 8.36998L72.7151 1.91617C72.9815 1.08458 72.683 0.745073 71.6501 0.745073L71.7833 0.344055H77.0088L76.8756 0.745073C75.7432 0.745073 75.2761 1.11653 74.9791 2.17899L72.7504 9.90695C72.4839 10.947 72.7151 11.348 73.8467 11.348L73.7456 11.7459H68.5241L68.5899 11.348C69.6565 11.348 70.1204 10.8783 70.4181 9.90695L72.2488 3.38523L66.3916 9.97645C66.2279 10.947 66.4591 11.348 67.39 11.348L67.26 11.7459H62.0674L62.1332 11.348C63.1332 11.2442 63.8298 10.7753 64.0626 9.90695L66.2616 2.17899C66.5586 1.11574 66.2929 0.745073 65.1637 0.745073L65.329 0.344055H70.553L70.4173 0.745073ZM83.7977 0.745073L83.8965 0.344055H78.9069L78.7721 0.745073C79.638 0.776228 80.138 1.08458 79.8395 2.17899L77.6075 9.90695C77.3074 10.947 76.8082 11.348 75.7111 11.348L75.6124 11.7459H80.8708L81.0032 11.348C80.0385 11.2442 79.7055 10.9127 80.0048 9.90695L80.9029 6.89852L81.8347 6.0917L83.8652 9.97565C84.199 10.5732 83.7648 11.2762 83.0987 11.2762L82.9663 11.7115H87.76L87.8932 11.2762C86.9944 11.3121 86.76 10.5732 86.4278 9.90615L83.7327 4.52677L86.6276 2.01682C87.2929 1.4129 87.9253 0.810577 88.8916 0.744274L89.0249 0.343258H85.297L85.1637 0.744274C86.8941 0.810577 85.894 1.74522 85.1974 2.31559L81.2697 5.49576L82.2343 2.17819C82.4655 1.4137 82.7969 0.776228 83.7977 0.745073ZM94.6453 11.2778C95.6421 11.2778 95.8764 10.6762 95.943 9.80789L96.0425 8.47303H92.5498L91.8162 9.60419C91.4165 10.2752 90.7512 11.2778 92.1822 11.2778L92.0185 11.7467H88.691L88.8226 11.2778C89.7175 11.1435 90.3186 10.3775 90.7833 9.67289L96.6734 0.846525C97.4703 0.777026 98.2697 0.413556 99.0016 0.113992L98.2697 9.90855C98.2022 10.5756 98.138 11.2786 99.0674 11.2786L98.935 11.7475H94.5104L94.6453 11.2778ZM96.0754 7.63106L96.443 3.05531L96.1758 3.11762L93.1469 7.63106H96.0754ZM21.3668 5.65953H21.0008L19.6685 10.5069C19.6043 10.8112 19.8018 11.1092 20.1348 11.1092C21.9639 11.1092 23.5947 9.44122 23.5947 7.50324C23.5955 6.26504 22.5337 5.65953 21.3668 5.65953ZM18.638 0.742677L18.7376 0.344855H26.8925L27.2263 3.52343H26.9262C26.3603 1.11733 24.5618 0.947977 22.3997 0.980729L21.2359 5.03004H21.8347C23.5971 5.03004 25.9944 5.79613 25.9944 8.00491C25.9944 10.411 23.2648 11.7475 21.1019 11.7475H15.4446L15.5441 11.3496C16.7111 11.3496 17.2087 11.0117 17.5064 9.90855L19.7038 2.18058C19.9029 1.51755 20.0168 0.878479 19.1156 0.777026L18.638 0.742677Z" fill="white"></path>
    <path d="M15.3451 9.08495C14.7737 10.6219 12.9157 11.7555 10.9984 11.7195C8.79294 11.658 6.68299 10.3687 4.44462 10.4669C2.87801 10.4981 1.21669 11.2674 0 12.2004C0.639647 10.1162 2.97432 8.66875 5.08427 8.6368C7.38523 8.60404 9.39968 9.85183 11.6709 9.95168C12.9149 10.0172 14.1637 9.56744 15.3451 9.08495ZM14.2303 1.38095C11.9591 1.2811 9.94382 0.0333108 7.64366 0.0660631C5.53371 0.0980167 3.19904 1.54551 2.55939 3.62968C3.77608 2.69664 5.4374 1.92815 7.00401 1.8962C9.24238 1.79714 11.3523 3.08727 13.5578 3.14878C15.4759 3.18472 17.3331 2.05197 17.9045 0.51421C16.7231 0.99591 15.4743 1.44566 14.2303 1.38095ZM12.9526 5.65154C10.6814 5.55168 8.66613 4.3039 6.36597 4.33665C4.25602 4.36861 1.92135 5.8161 1.2817 7.90027C2.4984 6.96723 4.15971 6.19874 5.72632 6.16679C7.96469 6.06773 10.0746 7.35786 12.2801 7.41937C14.1982 7.45531 16.0554 6.32256 16.6268 4.7848C15.4446 5.2673 14.1958 5.71704 12.9526 5.65154Z" fill="white"></path>
    <path d="M7.31059 2.57921C8.27528 2.59519 9.18941 2.88037 10.2456 3.17674C11.2632 3.45713 12.553 3.80462 13.4743 3.80542C15.7159 3.80862 16.9246 2.723 16.9246 2.723L16.992 2.80608C16.362 3.7511 15.0361 4.45088 13.4109 4.42852C12.4406 4.41494 11.008 4.05066 9.85474 3.71835C8.72071 3.39881 7.73275 3.08727 6.80096 3.07049C5.10915 3.04014 3.78652 3.7535 3.78652 3.7535L3.73194 3.66083C4.61236 3.01617 5.97271 2.55764 7.31059 2.57921ZM1.17175 12.2316L1.22632 12.3242C1.22632 12.3242 2.54896 11.6109 4.24077 11.6412C5.17255 11.658 6.16132 11.9695 7.29454 12.2891C8.44783 12.6214 9.88122 12.9865 10.8507 12.9993C12.4759 13.0216 13.8018 12.3218 14.4318 11.3768L14.3644 11.2937C14.3644 11.2937 13.1557 12.3794 10.9141 12.3762C9.99278 12.3746 8.70305 12.0279 7.68539 11.7475C6.62921 11.4511 5.71429 11.1659 4.7504 11.1499C3.41332 11.1284 2.05297 11.5877 1.17175 12.2316ZM2.45345 7.93062L2.50803 8.02329C2.50803 8.02329 3.83066 7.30993 5.52247 7.34028C6.45425 7.35706 7.44302 7.6686 8.57624 7.98814C9.72953 8.32045 11.1629 8.68552 12.1324 8.69831C13.7576 8.72067 15.0835 8.02089 15.7135 7.07587L15.6461 6.99279C15.6461 6.99279 14.4374 8.07841 12.1958 8.07521C11.2745 8.07362 9.98475 7.72692 8.9671 7.44653C7.91092 7.15016 6.99599 6.86497 6.0321 6.84899C4.69502 6.82822 3.33467 7.28756 2.45345 7.93062Z" fill="white"></path>
  </g>
</svg>
