<?xml version="1.0" encoding="UTF-8"?>
<svg xmlns="http://www.w3.org/2000/svg" width="220" height="50" viewBox="0 0 220 50" fill="none">
  <g id="Vector">
    <path d="M211.803 15.6017C212.071 14.9381 213.464 14.6063 215.982 14.6063C216.628 14.6063 217.42 14.6616 218.356 14.7722C219.314 14.8607 219.793 14.9492 219.793 15.0376L214.11 26.5182L219.994 37.5011C220.061 37.6117 219.582 37.7223 218.556 37.8329C217.531 37.9214 216.662 37.9656 215.949 37.9656C213.118 37.9656 211.569 37.5896 211.302 36.8375L208.794 30.4999L206.521 37.0365C206.298 37.6559 204.872 37.9656 202.242 37.9656C201.595 37.9656 200.793 37.9214 199.834 37.8329C198.876 37.7444 198.441 37.6227 198.531 37.4679L203.746 25.9873L198.33 15.0376C198.263 14.927 198.72 14.8275 199.701 14.739C200.704 14.6284 201.551 14.5731 202.242 14.5731C205.05 14.5731 206.588 14.9713 206.855 15.7676L209.162 21.342L211.803 15.6017Z" fill="white"></path>
    <path d="M186.334 32.2012V20.3888H183.96C183.582 20.3888 183.314 19.9132 183.158 18.962C183.091 18.4975 183.058 18.0219 183.058 17.5353C183.058 17.0486 183.091 16.573 183.158 16.1085C183.314 15.1573 183.582 14.6817 183.96 14.6817H195.193C195.572 14.6817 195.829 15.1573 195.962 16.1085C196.052 16.573 196.096 17.0486 196.096 17.5353C196.096 18.0219 196.052 18.4975 195.962 18.962C195.829 19.9132 195.572 20.3888 195.193 20.3888H192.954V32.2012H195.294C195.673 32.2012 195.94 32.6768 196.096 33.628C196.185 34.0925 196.23 34.5681 196.23 35.0547C196.23 35.5414 196.185 36.017 196.096 36.4815C195.94 37.4327 195.673 37.9083 195.294 37.9083H184.027C183.648 37.9083 183.392 37.4327 183.258 36.4815C183.169 36.017 183.125 35.5414 183.125 35.0547C183.125 34.5681 183.169 34.0925 183.258 33.628C183.392 32.6768 183.648 32.2012 184.027 32.2012H186.334Z" fill="white"></path>
    <path d="M163.086 36.382V16.4735C163.086 15.9205 163.22 15.4891 163.487 15.1794C163.777 14.8476 164.145 14.6817 164.591 14.6817H170.174C173.718 14.6817 176.403 15.5665 178.231 17.3362C180.081 19.1058 181.006 21.893 181.006 25.6977C181.006 33.8381 177.506 37.9083 170.508 37.9083H164.791C163.655 37.9083 163.086 37.3995 163.086 36.382ZM169.505 20.9861V30.9071C169.505 31.3717 169.539 31.6703 169.605 31.803C169.672 31.9136 169.873 31.9689 170.207 31.9689C171.433 31.9689 172.358 31.5155 172.982 30.6085C173.628 29.7016 173.952 28.1974 173.952 26.0959C173.952 23.9723 173.617 22.5898 172.949 21.9483C172.302 21.3068 171.266 20.9861 169.839 20.9861H169.505Z" fill="white"></path>
    <path d="M150.32 38.2672C147.2 38.2672 144.648 37.2497 142.664 35.2146C140.703 33.1795 139.722 30.2153 139.722 26.3221C139.722 22.4068 140.714 19.4426 142.698 17.4296C144.704 15.4167 147.278 14.4102 150.42 14.4102C153.585 14.4102 156.137 15.4056 158.076 17.3965C160.015 19.3652 160.985 22.3625 160.985 26.3885C160.985 30.3923 159.993 33.3786 158.009 35.3473C156.026 37.2939 153.463 38.2672 150.32 38.2672ZM150.354 20.7809C149.284 20.7809 148.381 21.2676 147.646 22.2409C146.932 23.2142 146.576 24.5856 146.576 26.3553C146.576 28.1028 146.921 29.4522 147.612 30.4033C148.303 31.3324 149.206 31.7969 150.32 31.7969C151.457 31.7969 152.371 31.3213 153.062 30.3702C153.775 29.419 154.131 28.0586 154.131 26.2889C154.131 24.5193 153.764 23.1589 153.028 22.2077C152.315 21.2565 151.423 20.7809 150.354 20.7809Z" fill="white"></path>
    <path d="M137.664 37.3774C137.664 37.7534 136.539 37.9414 134.288 37.9414C132.036 37.9414 130.911 37.7534 130.911 37.3774V29.7458H126.23V37.3774C126.23 37.7534 125.105 37.9414 122.854 37.9414C120.603 37.9414 119.477 37.7534 119.477 37.3774V15.3785C119.477 14.9139 120.603 14.6817 122.854 14.6817C125.105 14.6817 126.23 14.9139 126.23 15.3785V23.176H130.911V15.4448C130.911 15.1351 131.468 14.9139 132.582 14.7812C133.162 14.737 133.73 14.7149 134.288 14.7149L135.993 14.7812C137.107 14.9139 137.664 15.1351 137.664 15.4448V37.3774Z" fill="white"></path>
    <path d="M112.572 37.3774C112.572 37.8198 111.469 38.041 109.262 38.041C107.056 38.041 105.952 37.8198 105.952 37.3774V20.7206H101.94C101.562 20.7206 101.294 20.2118 101.138 19.1943C101.071 18.7076 101.038 18.2099 101.038 17.7012C101.038 17.1924 101.071 16.6947 101.138 16.208C101.294 15.1905 101.562 14.6817 101.94 14.6817H116.483C116.862 14.6817 117.13 15.1905 117.286 16.208C117.353 16.6947 117.386 17.1924 117.386 17.7012C117.386 18.2099 117.353 18.7076 117.286 19.1943C117.13 20.2118 116.862 20.7206 116.483 20.7206H112.572V37.3774Z" fill="white"></path>
    <path d="M96.2542 23.906C96.6777 23.906 96.8894 24.6802 96.8894 26.2286C96.8894 26.6932 96.8337 27.2462 96.7222 27.8877C96.6331 28.5071 96.4548 28.8167 96.1873 28.8167H91.9415V32.1348H98.0929C98.4718 32.1348 98.7281 32.6215 98.8619 33.5948C98.9287 34.0151 98.9622 34.4685 98.9622 34.9552C98.9622 35.4197 98.8953 36.028 98.7616 36.7801C98.6279 37.5322 98.405 37.9083 98.0929 37.9083H86.6593C85.8123 37.9083 85.3889 37.5654 85.3889 36.8797V15.5444C85.3889 14.9693 85.6452 14.6817 86.1578 14.6817H98.1264C98.5944 14.6817 98.8284 15.6661 98.8284 17.6348C98.8284 19.5814 98.5944 20.5547 98.1264 20.5547H91.9415V23.906H96.2542Z" fill="white"></path>
    <path d="M79.7188 37.9746C77.7352 37.9746 76.7434 37.7534 76.7434 37.311L76.0413 24.0055L71.9626 37.4769C71.8735 37.7424 71.1157 37.8751 69.6893 37.8751C68.2629 37.8751 67.5274 37.7534 67.4828 37.5101L63.2704 23.8728L62.8023 37.1119C62.7801 37.4437 62.3566 37.676 61.5319 37.8087C60.7073 37.9193 60.0164 37.9746 59.4592 37.9746C58.9243 37.9746 58.4005 37.9414 57.8879 37.8751C56.8181 37.7202 56.2943 37.4437 56.3166 37.0456L57.0855 15.478C57.0855 14.9471 58.4451 14.6817 61.1642 14.6817C61.9665 14.6817 62.9472 14.748 64.1062 14.8808C65.2652 14.9914 65.9115 15.2236 66.0452 15.5776L69.7896 26.0295L73.0659 15.5444C73.2665 14.9692 74.8043 14.6817 77.6795 14.6817C78.5041 14.6817 79.4848 14.748 80.6215 14.8808C81.7804 14.9914 82.3599 15.2015 82.3599 15.5112L83.3294 37.2778C83.3294 37.5211 82.8948 37.6981 82.0256 37.8087C81.1564 37.9193 80.3874 37.9746 79.7188 37.9746Z" fill="white"></path>
    <path fill-rule="evenodd" clip-rule="evenodd" d="M6.15963 8.27794C6.10013 8.36412 5.87093 8.62779 5.65032 8.86388C5.40827 9.1229 5.21056 9.35303 5.15182 9.44415C5.0983 9.52721 4.9804 9.68548 4.88985 9.7959C4.66496 10.0701 4.31335 10.565 4.20642 10.7579C4.15794 10.8454 3.95074 11.1705 3.74596 11.4804C3.27138 12.1986 3.12771 12.4427 2.83033 13.0361C2.69748 13.3012 2.50247 13.6774 2.39695 13.8721C2.29143 14.0669 2.17314 14.3139 2.13406 14.421C2.02143 14.7299 1.88792 15.0465 1.75783 15.3133C1.69166 15.449 1.58786 15.7024 1.52717 15.8763C1.13663 16.9953 1.03214 17.3168 0.925089 17.7289C0.859117 17.983 0.758198 18.366 0.700806 18.5802C0.643431 18.7943 0.558946 19.1802 0.513077 19.4376C0.467226 19.6951 0.404655 20.037 0.374021 20.1974C0.25273 20.8329 0.0839863 22.2391 0.0653392 22.77C0.054876 23.0678 0.0366834 23.4062 0.0249149 23.522C-0.00923303 23.8578 -0.00806863 24.7022 0.0271123 25.1037C0.0448968 25.3067 0.0641326 25.64 0.0698784 25.8444C0.0815089 26.2598 0.163631 27.1333 0.203448 27.2654C0.217664 27.3126 0.265483 27.3877 0.309681 27.4324C0.431269 27.5553 0.550293 27.5381 0.865511 27.3518C1.02235 27.2591 1.99497 26.7688 2.9592 26.2963C3.29228 26.1331 3.71082 25.9465 3.88931 25.8816C4.06779 25.8167 4.38035 25.695 4.58389 25.6112C5.02308 25.4303 6.3049 25.0027 6.73286 24.8942C6.89923 24.852 7.23231 24.7645 7.47303 24.6997C7.71375 24.635 8.14025 24.5308 8.42083 24.4682C8.70138 24.4056 9.0573 24.3262 9.21175 24.2917C9.36619 24.2572 9.68523 24.1992 9.92076 24.1629C10.1563 24.1265 10.4691 24.0757 10.616 24.05C10.7628 24.0243 11.033 23.9859 11.2165 23.9646C11.3999 23.9434 11.709 23.9016 11.9033 23.8718C12.0977 23.842 12.3971 23.8064 12.5687 23.7928C12.7403 23.7791 13.0323 23.7442 13.2176 23.7151C13.6244 23.6512 14.3482 23.5821 14.8815 23.5562C15.0969 23.5458 15.3802 23.5246 15.5109 23.509C15.6416 23.4935 15.8611 23.4737 15.9986 23.465C16.1362 23.4563 16.3281 23.4409 16.4251 23.4306C16.5221 23.4204 16.7814 23.4004 17.0012 23.3862C17.221 23.3721 17.4723 23.3521 17.5595 23.3418C17.6467 23.3316 17.8307 23.3161 17.9683 23.3074C18.1058 23.2987 18.3334 23.2793 18.4739 23.2643C18.6144 23.2492 18.932 23.2318 19.1797 23.2254C19.4274 23.2191 19.7454 23.2018 19.8865 23.1868C20.0275 23.1719 20.3041 23.1533 20.5011 23.1455C20.8631 23.131 21.3749 23.091 21.9426 23.0326C22.1134 23.0151 22.3744 22.9944 22.5227 22.9867C22.671 22.979 23.0585 22.9437 23.3839 22.9084C23.7092 22.873 24.0642 22.8372 24.1727 22.8288C24.2813 22.8203 24.4613 22.801 24.5728 22.7858C24.6843 22.7706 24.8881 22.7509 25.0256 22.7421C25.7061 22.6985 27.7708 22.3592 28.5741 22.159C28.7716 22.1098 29.0903 22.0376 29.2825 21.9985C29.4772 21.959 29.9101 21.8336 30.2605 21.7152C30.6063 21.5984 31.0554 21.4539 31.2586 21.394C31.7067 21.262 33.1245 20.6644 33.4994 20.4494C33.6416 20.3679 33.9845 20.1775 34.2614 20.0263C34.8543 19.7025 35.2881 19.4087 35.6635 19.0766C35.8131 18.9443 36.0058 18.7948 36.0917 18.7446C36.3141 18.6144 36.9184 18.0027 37.2069 17.6158C37.319 17.4655 37.4941 17.2591 37.5961 17.1571C37.6982 17.055 37.8337 16.8964 37.8973 16.8047C37.961 16.7129 38.0883 16.5383 38.1803 16.4166C38.5127 15.9768 38.6472 15.7537 39.1631 14.7867C39.4067 14.3299 39.767 13.4832 39.9319 12.9799C40.0133 12.7313 40.124 12.4135 40.178 12.2737C40.2319 12.1338 40.309 11.8697 40.3493 11.6868C40.3896 11.5038 40.4585 11.2313 40.5023 11.0812C40.6479 10.5831 40.8163 9.88011 40.8605 9.58665C40.8845 9.4274 40.931 9.14948 40.9638 8.96905C41.0803 8.32834 41.2728 6.94927 41.2712 6.76636C41.2689 6.51193 41.191 6.36757 40.9712 6.21025C40.8861 6.14942 40.6741 5.97189 40.5 5.81578C40.3259 5.65967 40.107 5.48119 40.0135 5.41917C39.92 5.35717 39.714 5.19285 39.5557 5.05403C39.3974 4.91521 39.2585 4.79944 39.247 4.79675C39.2355 4.79406 39.0777 4.68633 38.8962 4.55734C38.3394 4.16157 37.5189 3.63081 37.1586 3.43336C36.9702 3.33011 36.6551 3.15215 36.4583 3.03789C35.9366 2.73502 34.985 2.26574 34.5048 2.07458C34.2752 1.9832 33.886 1.82341 33.6398 1.7195C32.7733 1.35378 31.1338 0.848402 30.1646 0.648266C29.7693 0.566609 29.3637 0.478376 29.2634 0.452182C28.9376 0.367083 28.3814 0.29313 26.7038 0.111908C26.4508 0.0845815 25.9356 0.0576133 25.559 0.052C25.1824 0.046369 24.8111 0.0332217 24.734 0.0227668C24.5217 -0.00600178 24.1054 -0.00781531 23.8936 0.0190903C23.7898 0.0322606 23.5127 0.0515214 23.2777 0.0618435C22.511 0.0955632 21.9967 0.151366 20.6106 0.35126C20.0496 0.432174 19.1136 0.62544 18.7308 0.739413C18.6107 0.775166 18.3667 0.834041 18.1885 0.870258C17.8242 0.94428 16.7846 1.2738 16.4275 1.42841C16.2985 1.4843 16.0359 1.57658 15.8441 1.63346C15.6523 1.69036 15.3887 1.7852 15.2583 1.84422C15.1279 1.90326 14.7832 2.05591 14.4923 2.18345C14.2013 2.31098 13.8437 2.47891 13.6976 2.55665C13.5516 2.63438 13.3273 2.74529 13.1992 2.80311C12.8723 2.95067 12.6353 3.08058 12.28 3.30702C12.111 3.41472 11.7693 3.62569 11.5206 3.77582C10.8543 4.17799 10.3154 4.547 9.59984 5.09097C9.51145 5.15816 9.36351 5.26482 9.27109 5.32801C9.15795 5.40537 8.9782 5.56626 8.72087 5.82053C8.43063 6.10733 8.27693 6.24274 8.08199 6.38349C7.85321 6.54867 7.74062 6.6532 7.04656 7.34504C6.45958 7.93012 6.24118 8.15986 6.15963 8.27794ZM2.05886 33.518C1.76484 33.9241 1.72033 34.0783 1.81593 34.3598C1.87011 34.5193 2.50991 35.7992 2.71512 36.1584C2.79622 36.3004 2.94673 36.5785 3.04958 36.7763C3.15244 36.9741 3.29206 37.2154 3.35985 37.3126C3.42766 37.4098 3.69524 37.8011 3.95449 38.1823C4.21374 38.5635 4.4613 38.9193 4.50461 38.973C4.5479 39.0268 4.68319 39.2037 4.80524 39.3661C5.05442 39.6977 5.15584 39.7783 5.31737 39.7733C5.39125 39.771 5.41989 39.753 5.53779 39.635C5.71549 39.4571 6.0751 39.0292 6.24228 38.7967C6.34552 38.6531 6.53579 38.4525 7.09374 37.899C7.72185 37.2759 7.84453 37.1629 8.06893 37.0009C8.21011 36.899 8.4002 36.7417 8.49135 36.6515C8.59923 36.5447 8.8312 36.3633 9.15587 36.1316C9.43021 35.9359 9.73527 35.7131 9.83379 35.6366C10.1221 35.4127 11.1334 34.7446 11.4737 34.5533C11.5858 34.4902 11.8894 34.3163 12.1483 34.1667C12.8346 33.7702 14.7603 32.8123 15.0785 32.7091C15.152 32.6853 15.4201 32.5671 15.6742 32.4465C15.9283 32.3259 16.2772 32.1731 16.4495 32.1069C16.6217 32.0407 16.9443 31.9054 17.1662 31.8061C17.3882 31.7069 17.7074 31.5722 17.8757 31.5069C18.044 31.4416 18.3308 31.3301 18.5131 31.2593C18.6954 31.1885 19.0518 31.0521 19.3052 30.9563C19.5586 30.8605 19.7985 30.7658 19.8382 30.7459C19.8779 30.726 20.1519 30.6246 20.4471 30.5206C20.7422 30.4166 21.0894 30.2858 21.2185 30.2301C21.3477 30.1743 21.628 30.0708 21.8415 30.0001C22.0549 29.9293 22.3642 29.8165 22.5289 29.7493C22.6936 29.6822 22.9577 29.5813 23.1158 29.5253C23.2739 29.4693 23.593 29.3503 23.825 29.261C24.0569 29.1717 24.4836 29.009 24.7732 28.8994C26.0927 28.4002 27.2108 27.9572 27.6759 27.7492C27.8912 27.653 28.2686 27.4889 28.5147 27.3846C28.7608 27.2803 29.6212 26.8668 30.4267 26.4657C31.7852 25.7892 32.374 25.4765 32.6914 25.2631C32.7612 25.2162 33.0612 25.0307 33.3581 24.8509C33.655 24.6712 34.1219 24.3662 34.3957 24.1732C34.6695 23.9802 34.9043 23.8197 34.9175 23.8166C34.9307 23.8135 35.0968 23.6694 35.2867 23.4965C35.5053 23.2972 35.6958 23.1422 35.8063 23.0735C35.9642 22.9753 36.0724 22.874 36.9474 22.0056C37.8027 21.1567 37.9269 21.0264 38.0249 20.8745C38.0859 20.7801 38.2201 20.6044 38.3232 20.484C38.4262 20.3636 38.6217 20.1061 38.7576 19.9117C39.1043 19.4158 39.9046 18.1017 40.0606 17.7722C40.1323 17.6207 40.3075 17.256 40.4501 16.9618C40.6768 16.4939 40.752 16.3002 41.0501 15.4158C41.2835 14.7236 41.416 14.2834 41.4705 14.0198C41.5142 13.8081 41.571 13.5607 41.5967 13.47C41.6659 13.2262 41.8159 12.5047 41.8537 12.2337C41.8718 12.1038 41.9302 11.763 41.9835 11.4764C42.0367 11.1899 42.0865 10.8274 42.094 10.6708C42.1015 10.5142 42.1229 10.2427 42.1415 10.0675C42.193 9.58249 42.1866 7.83865 42.1328 7.68726C42.0447 7.43944 41.8467 7.37535 41.766 7.56857C41.7459 7.61653 41.7258 8.0191 41.7191 8.50391C41.7127 8.97206 41.6923 9.49053 41.6737 9.65604C41.6551 9.82158 41.6329 10.0846 41.6242 10.2406C41.5898 10.8586 41.4895 11.5492 41.2959 12.5014C41.1175 13.3793 41.0391 13.7017 40.8237 14.4455C40.7953 14.5433 40.736 14.7142 40.6918 14.8252C40.6476 14.9363 40.5667 15.1649 40.512 15.3332C40.4572 15.5016 40.3586 15.7522 40.2928 15.8903C40.227 16.0283 40.1251 16.2519 40.0663 16.3873C39.9344 16.6909 39.5764 17.382 39.4219 17.6313C39.2022 17.9857 38.8596 18.5018 38.6752 18.7562C37.9805 19.7145 38.0903 19.5875 37.1576 20.5109C36.69 20.9739 36.2649 21.3819 36.2131 21.4176C34.4832 22.6079 34.2767 22.7365 33.4558 23.1347C33.2199 23.2492 32.9107 23.4096 32.7686 23.4913C32.4799 23.6572 32.2905 23.7421 31.8885 23.8853C31.7378 23.939 31.473 24.0485 31.3 24.1286C30.8847 24.321 28.5926 25.0812 28.1891 25.1603C28.0262 25.1922 27.8184 25.2394 27.7273 25.2652C27.1443 25.4299 26.1657 25.6634 25.2537 25.8556C24.8433 25.942 24.4069 26.034 24.284 26.0599C23.7795 26.1662 23.3156 26.2567 23.0495 26.3007C22.8943 26.3263 22.5643 26.3869 22.3162 26.4354C22.068 26.4839 21.6436 26.5562 21.3731 26.5961C21.1025 26.6359 20.6926 26.7044 20.4621 26.7481C20.2315 26.7919 19.9378 26.8421 19.8093 26.8598C19.2138 26.9418 18.7124 27.0222 18.374 27.09C18.1711 27.1307 17.8835 27.178 17.7349 27.1951C17.5864 27.2123 17.3256 27.2544 17.1553 27.2887C16.985 27.3231 16.6435 27.3802 16.3963 27.4157C16.1492 27.4512 15.7576 27.5198 15.5262 27.5682C15.2948 27.6166 14.963 27.6754 14.7889 27.699C14.6148 27.7225 14.2105 27.7962 13.8904 27.8628C13.5703 27.9294 13.1146 28.0237 12.8777 28.0724C12.4861 28.1528 11.177 28.4648 10.5847 28.6187C10.2527 28.705 8.6662 29.2377 8.41116 29.3485C8.29581 29.3986 8.06651 29.489 7.90162 29.5493C7.73671 29.6097 7.46301 29.7262 7.29338 29.8082C7.12375 29.8903 6.86167 30.0093 6.71102 30.0728C6.09945 30.3304 4.61512 31.1796 4.2245 31.4954C4.1116 31.5866 3.94259 31.712 3.84893 31.7739C3.61525 31.9286 2.23856 33.2699 2.05886 33.518ZM42.9431 8.82103C42.9175 8.92811 42.9259 9.18199 42.9686 9.59217C43.0077 9.96827 43.0044 11.3376 42.9636 11.6756C42.9479 11.8053 42.9308 12.1009 42.9254 12.3325C42.9158 12.7531 42.8826 13.0602 42.7336 14.1055C42.5384 15.4743 42.2567 16.7069 41.9434 17.5637C41.8085 17.9325 41.764 18.0658 41.6431 18.4627C41.4839 18.9859 40.7088 20.5203 40.2986 21.1243C40.2515 21.1937 40.156 21.3524 40.0864 21.477C39.8787 21.8487 39.5674 22.3075 39.3584 22.55C39.2504 22.6753 39.1268 22.8299 39.0837 22.8936C39.0406 22.9573 38.9009 23.1275 38.7732 23.272C38.6456 23.4164 38.4916 23.6121 38.4309 23.7068C38.3314 23.8622 38.2102 23.9886 37.1855 25.0056C36.1898 25.9939 36.0259 26.1491 35.8514 26.2693C35.742 26.3447 35.5363 26.5128 35.3942 26.6429C35.2521 26.773 35.0048 26.979 34.8445 27.1007C34.6842 27.2224 34.4446 27.4044 34.312 27.5052C33.6901 27.9777 33.3836 28.1894 32.8164 28.5381C32.6899 28.6159 32.4094 28.797 32.1931 28.9406C31.7226 29.253 31.1105 29.627 30.7331 29.8328C30.582 29.9152 30.3023 30.0733 30.1116 30.1842C29.9209 30.2951 29.5498 30.497 29.2868 30.6331C29.0239 30.769 28.6159 30.9839 28.3801 31.1105C28.1443 31.2372 27.7402 31.4403 27.4821 31.562C27.224 31.6837 26.8729 31.8641 26.7019 31.9628C26.531 32.0616 26.1651 32.2428 25.8889 32.3657C25.6127 32.4885 25.3413 32.6152 25.2858 32.6473C25.0897 32.7606 24.4075 33.1021 24.0729 33.2545C23.8865 33.3394 23.5671 33.4978 23.3632 33.6064C23.1593 33.715 22.7944 33.8961 22.5523 34.0087C22.3102 34.1214 21.9898 34.2787 21.8403 34.3583C21.6907 34.4378 21.3806 34.5938 21.1512 34.705C19.8313 35.3441 18.5406 36.0129 17.8651 36.4078C17.7116 36.4975 17.3492 36.7003 17.0598 36.8584C16.7704 37.0165 16.3186 37.2881 16.0558 37.4618C15.793 37.6356 15.5025 37.8225 15.4102 37.8773C15.0963 38.0633 14.6027 38.3971 14.4042 38.5574C14.2954 38.6453 14.1275 38.7718 14.0311 38.8384C13.9348 38.9051 13.6917 39.1135 13.491 39.3016C13.2826 39.4968 13.015 39.725 12.8674 39.8334C12.5353 40.077 11.9693 40.6322 11.7734 40.9064C11.7005 41.0084 11.5204 41.2256 11.373 41.3891C11.2256 41.5527 11.0172 41.8053 10.9099 41.9506C10.8026 42.0958 10.6592 42.2861 10.5911 42.3735C10.5231 42.4609 10.3884 42.6837 10.2919 42.8687C10.1953 43.0536 10.0536 43.3138 9.9769 43.4469C9.74699 43.8459 9.71403 44.0112 9.82561 44.2059C9.88044 44.3016 9.89451 44.3122 10.5926 44.7856C10.7084 44.8641 10.9718 45.0459 11.178 45.1896C11.3841 45.3332 11.663 45.5076 11.7978 45.5769C12.1597 45.7632 12.2411 45.8081 12.872 46.1693C13.1891 46.3508 13.6122 46.572 13.8122 46.6609C14.0123 46.7497 14.3019 46.8794 14.4559 46.9491C14.7052 47.062 14.972 47.1792 15.4878 47.4023C15.7383 47.5107 17.4946 48.0872 17.6186 48.1017C17.6796 48.1089 17.7722 48.1024 17.8244 48.0872C17.9908 48.039 18.0488 47.9275 18.14 47.4815C18.3672 46.3702 18.4052 46.2213 18.6379 45.5294C18.7708 45.1345 18.9384 44.6909 19.0103 44.5435C19.0823 44.3962 19.1795 44.179 19.2263 44.0609C19.2731 43.9427 19.3559 43.7556 19.4104 43.6451C19.5388 43.3845 20.359 42.0224 20.5317 41.783C21.1216 40.9651 21.1141 40.974 21.71 40.3826C22.1356 39.9602 22.3123 39.771 22.4334 39.6084C22.5437 39.4602 22.6547 39.3388 22.79 39.2185C22.898 39.1224 23.1298 38.9168 23.3051 38.7615C23.4804 38.6063 23.7918 38.3134 23.9973 38.1106C24.2764 37.8352 24.4308 37.6992 24.6084 37.5729C24.7391 37.4799 24.9155 37.3461 25.0004 37.2755C25.0854 37.2049 25.4647 36.9318 25.8433 36.6685C26.222 36.4053 26.6086 36.1316 26.7026 36.0602C26.7965 35.9889 26.932 35.8937 27.0037 35.8486C27.0754 35.8036 27.2073 35.7126 27.2967 35.6465C27.3861 35.5803 27.6626 35.4032 27.9112 35.253C28.3684 34.9767 29.384 34.3128 29.6649 34.1065C29.749 34.0448 29.9718 33.9015 30.16 33.7882C30.3483 33.6748 30.6309 33.4959 30.7881 33.3905C31.6977 32.7809 32.001 32.5705 32.1664 32.4348C32.2678 32.3515 32.3985 32.2515 32.4569 32.2126C32.5153 32.1737 32.6627 32.0665 32.7845 31.9744C32.9063 31.8823 33.1852 31.6838 33.4041 31.5332C33.6231 31.3826 33.9012 31.179 34.022 31.0807C34.1429 30.9823 34.2917 30.8687 34.3528 30.8281C34.4139 30.7875 34.599 30.6349 34.7642 30.4889C34.9293 30.343 35.1292 30.1849 35.2083 30.1376C35.5188 29.952 38.5128 26.9809 38.7028 26.67C38.7507 26.5916 38.8613 26.4479 38.9486 26.3506C39.2037 26.0665 39.5357 25.6165 39.9834 24.9483C40.2132 24.6052 40.4827 24.2152 40.5822 24.0816C40.7639 23.8375 40.9595 23.4766 41.1968 22.9473C41.2601 22.806 41.3716 22.5831 41.4446 22.4519C41.5844 22.2005 41.8978 21.4858 41.9899 21.2084C42.0198 21.1182 42.1099 20.8914 42.19 20.7045C42.3355 20.3647 42.6362 19.4691 42.7464 19.0472C42.7786 18.9242 42.8503 18.6785 42.9058 18.5013C43.1002 17.8807 43.3948 16.6119 43.4839 16.012C43.5114 15.8263 43.5553 15.5451 43.5813 15.387C43.6074 15.2289 43.6358 15.0114 43.6443 14.9038C43.6529 14.7961 43.6727 14.586 43.6883 14.4369C43.704 14.2878 43.7235 14.0299 43.7317 13.8638C43.7399 13.6977 43.7608 13.4411 43.7781 13.2938C43.7955 13.1464 43.8162 12.6917 43.8243 12.2834C43.8323 11.875 43.8512 11.4026 43.8663 11.2336C43.8814 11.0646 43.8945 10.6246 43.8955 10.2557C43.8976 9.46104 43.8874 9.41772 43.6133 9.06477C43.3566 8.73409 43.2384 8.62103 43.1495 8.62107C43.06 8.62111 42.97 8.70825 42.9431 8.82103ZM44.8824 11.8907C44.8546 11.9797 44.8761 12.5281 44.9397 13.3522C44.9809 13.8865 44.9642 15.7743 44.9138 16.2815C44.8904 16.5168 44.8524 16.8989 44.8293 17.1307C44.7781 17.6448 44.6958 18.3979 44.6729 18.5613C44.618 18.9538 44.371 20.1524 44.1964 20.8736C44.1623 21.0141 43.9795 21.5931 43.79 22.1602C43.5107 22.9961 43.4063 23.2725 43.2384 23.6196C43.1245 23.8551 42.9952 24.1466 42.9511 24.2674C42.8201 24.6258 42.7333 24.812 42.5166 25.1995C42.4036 25.4016 42.2453 25.704 42.165 25.8716C41.9767 26.264 41.7024 26.727 41.3135 27.3088C41.1427 27.5643 40.8665 27.9963 40.6997 28.2687C40.5151 28.5703 40.3281 28.8462 40.2217 28.9738C40.1256 29.0891 39.9943 29.258 39.93 29.3491C39.8657 29.4402 39.7426 29.5953 39.6565 29.6938C39.5704 29.7922 39.4439 29.9519 39.3755 30.0486C39.3071 30.1453 39.1147 30.3742 38.948 30.5573C38.7813 30.7404 38.6053 30.9539 38.557 31.0318C38.5086 31.1096 38.3327 31.3232 38.1662 31.5065C37.9996 31.6897 37.8038 31.9232 37.7311 32.0253C37.5556 32.2718 37.0057 32.8166 36.7725 32.975C36.6546 33.0551 36.3863 33.2963 35.879 33.7782C35.2876 34.34 35.1064 34.5008 34.8958 34.6508C34.7078 34.7847 34.5556 34.9159 34.3358 35.1336C34.1422 35.3254 33.9668 35.4795 33.8465 35.5634C33.7434 35.6353 33.4768 35.8619 33.2541 36.0669C33.0096 36.2921 32.7816 36.484 32.6782 36.5515C32.5841 36.613 32.3762 36.779 32.2163 36.9204C32.0564 37.0618 31.8544 37.2234 31.7675 37.2794C31.6806 37.3354 31.497 37.4779 31.3593 37.596C31.2217 37.7141 31.0567 37.8459 30.9927 37.8888C30.9286 37.9317 30.7883 38.038 30.6808 38.1251C30.5734 38.2121 30.3791 38.3579 30.249 38.4492C30.1189 38.5404 29.9636 38.6635 29.9039 38.7228C29.8441 38.782 29.6832 38.9093 29.5462 39.0058C29.3962 39.1114 29.1392 39.3254 28.9001 39.5439C28.6817 39.7435 28.4187 39.9657 28.3157 40.0377C28.1558 40.1496 27.9039 40.3915 26.593 41.6925C25.0575 43.2162 25.0575 43.2162 24.7918 43.584C24.4354 44.0772 24.377 44.1732 24.0786 44.7575C23.6467 45.6035 23.5293 45.8774 23.1628 46.894C23.0729 47.1434 22.9395 48.2618 22.9387 48.7727C22.9383 49.0531 23.0542 49.1766 23.3536 49.2148C23.4467 49.2267 23.9938 49.2334 24.5694 49.2298C25.5047 49.2238 26.0907 49.1946 26.8144 49.1177C26.9416 49.1041 27.176 49.0798 27.3352 49.0635C27.6942 49.0268 27.9478 48.9887 28.2902 48.9199C28.4363 48.8906 28.6701 48.8516 28.8099 48.8332C29.1676 48.7862 29.5375 48.7105 29.9095 48.6083C30.0852 48.56 30.3448 48.4928 30.4864 48.459C30.628 48.4253 30.8192 48.373 30.9114 48.3428C31.0036 48.3126 31.1655 48.2674 31.2713 48.2423C31.4981 48.1885 32.4411 47.8856 32.84 47.7384C33.3049 47.5669 34.1988 47.1858 34.6932 46.9483C34.9496 46.8252 35.3007 46.6587 35.4734 46.5784C35.6462 46.4981 36.0625 46.2697 36.3985 46.0707C36.7345 45.8717 37.0925 45.6645 37.1939 45.6103C37.536 45.4273 37.7316 45.3022 38.2398 44.9408C38.5183 44.7428 38.8217 44.529 38.914 44.4657C39.0064 44.4024 39.1341 44.2994 39.1978 44.2368C39.2616 44.1742 39.4247 44.043 39.5602 43.9452C39.6958 43.8474 39.8838 43.7013 39.978 43.6205C40.0722 43.5397 40.2606 43.3939 40.3966 43.2965C40.6175 43.1383 40.7372 43.0268 41.5218 42.248C42.2364 41.5387 42.4242 41.342 42.5317 41.1907C42.6043 41.0885 42.8123 40.8434 42.9939 40.6461C43.187 40.4364 43.3929 40.1892 43.4894 40.051C43.5803 39.921 43.7073 39.7619 43.7716 39.6973C43.836 39.6328 43.9406 39.5049 44.0041 39.4131C44.0677 39.3212 44.1956 39.1472 44.2884 39.0263C44.5525 38.6822 44.789 38.3226 45.3237 37.4524C45.7371 36.7794 45.8955 36.4944 46.2785 35.734C46.7426 34.8127 46.8687 34.5382 46.9757 34.217C47.0081 34.1198 47.1045 33.8962 47.1901 33.7201C47.3443 33.4026 47.4273 33.1857 47.4757 32.9736C47.4895 32.913 47.5566 32.7167 47.6248 32.5373C47.693 32.358 47.7757 32.1042 47.8086 31.9734C47.8416 31.8427 47.9224 31.5594 47.9883 31.344C48.0541 31.1286 48.1783 30.6182 48.2643 30.2097C48.3503 29.8012 48.4439 29.3713 48.4724 29.2544C48.5009 29.1374 48.5382 28.913 48.5553 28.7557C48.5725 28.5985 48.6325 28.1511 48.6888 27.7616C48.745 27.372 48.7962 26.9158 48.8025 26.7478C48.8088 26.5798 48.8269 26.3284 48.8427 26.1892C48.8808 25.8547 48.8812 24.0065 48.8434 23.6192C48.827 23.4516 48.8075 23.1781 48.8002 23.0112C48.7928 22.8444 48.7729 22.5872 48.7559 22.4396C48.7389 22.292 48.7186 22.0842 48.7108 21.9777C48.6839 21.6092 48.558 20.8539 48.3457 19.786C48.1231 18.6668 48.0834 18.5149 47.7291 17.4257C47.6102 17.06 47.48 16.659 47.4397 16.5345C47.3995 16.41 47.3133 16.1868 47.2483 16.0385C47.1833 15.8902 47.0567 15.5713 46.9669 15.3298C46.811 14.9105 46.6331 14.5306 46.1189 13.5185C45.773 12.8378 45.7104 12.7242 45.4798 12.3585C45.2099 11.9306 45.0795 11.7725 44.9966 11.7725C44.9216 11.7726 44.9182 11.776 44.8824 11.8907Z" fill="white"></path>
  </g>
</svg>
