<?xml version="1.0" encoding="UTF-8"?>
<svg xmlns="http://www.w3.org/2000/svg" width="24" height="25" viewBox="0 0 24 25" fill="none">
  <g id="Icon" clip-path="url(#clip0_484_3412)">
    <path id="Vector" d="M20 8.64834C20.0028 7.3532 19.6912 6.07673 19.0918 4.92862C18.4924 3.78051 17.6233 2.79508 16.559 2.05701C15.4948 1.31894 14.2672 0.850295 12.9819 0.691341C11.6965 0.532387 10.3918 0.687879 9.17978 1.14446C7.96778 1.60103 6.88476 2.34504 6.02376 3.31256C5.16276 4.28007 4.54954 5.44216 4.23678 6.69898C3.92402 7.95579 3.92108 9.26975 4.2282 10.528C4.53533 11.7862 5.14334 12.951 6 13.9223V22.1483C5.99999 22.6193 6.13301 23.0807 6.38373 23.4793C6.63445 23.878 6.99268 24.1977 7.41716 24.4017C7.84164 24.6057 8.3151 24.6856 8.78302 24.6323C9.25094 24.579 9.69429 24.3946 10.062 24.1003L12 22.5483L13.938 24.0983C14.3056 24.3925 14.7487 24.5769 15.2165 24.6303C15.6842 24.6836 16.1575 24.6039 16.5819 24.4001C17.0063 24.1964 17.3646 23.877 17.6155 23.4786C17.8663 23.0802 17.9996 22.6191 18 22.1483V13.9223C19.2883 12.4675 19.9997 10.5916 20 8.64834ZM12 2.64834C13.1867 2.64834 14.3467 3.00024 15.3334 3.65952C16.3201 4.31881 17.0891 5.25589 17.5433 6.35224C17.9974 7.4486 18.1162 8.655 17.8847 9.81888C17.6532 10.9828 17.0818 12.0519 16.2426 12.891C15.4035 13.7301 14.3344 14.3015 13.1705 14.5331C12.0067 14.7646 10.8003 14.6457 9.7039 14.1916C8.60754 13.7375 7.67047 12.9685 7.01118 11.9818C6.35189 10.9951 6 9.83503 6 8.64834C6.00158 7.05753 6.63424 5.53233 7.75911 4.40746C8.88398 3.28258 10.4092 2.64993 12 2.64834ZM15.717 22.5963C15.6324 22.6383 15.5375 22.6549 15.4437 22.6443C15.3498 22.6336 15.2611 22.5962 15.188 22.5363L12 19.9853L8.813 22.5363C8.73962 22.5952 8.65111 22.6322 8.55765 22.6431C8.46418 22.6539 8.36956 22.6382 8.28464 22.5977C8.19972 22.5572 8.12796 22.4935 8.07761 22.414C8.02726 22.3345 8.00036 22.2424 8 22.1483V15.5663C9.21396 16.2749 10.5944 16.6483 12 16.6483C13.4056 16.6483 14.786 16.2749 16 15.5663V22.1483C16.0011 22.2424 15.975 22.3347 15.9248 22.4142C15.8745 22.4937 15.8024 22.557 15.717 22.5963Z" fill="white"></path>
  </g>
  <defs>
    <clipPath id="clip0_484_3412">
      <rect width="24" height="24" fill="white" transform="translate(0 0.648438)"></rect>
    </clipPath>
  </defs>
</svg>
