<?xml version="1.0" encoding="UTF-8"?>
<svg xmlns="http://www.w3.org/2000/svg" width="24" height="25" viewBox="0 0 24 25" fill="none">
  <g id="01 align center">
    <path id="Vector" d="M10.931 3.39821C10.7164 2.60848 10.2478 1.91131 9.59767 1.41428C8.94752 0.91724 8.15188 0.647949 7.3335 0.647949C6.51512 0.647949 5.71948 0.91724 5.06933 1.41428C4.41917 1.91131 3.95064 2.60848 3.736 3.39821H0V5.39821H3.736C3.95064 6.18794 4.41917 6.8851 5.06933 7.38214C5.71948 7.87918 6.51512 8.14847 7.3335 8.14847C8.15188 8.14847 8.94752 7.87918 9.59767 7.38214C10.2478 6.8851 10.7164 6.18794 10.931 5.39821H24V3.39821H10.931ZM7.333 6.14821C6.98688 6.14821 6.64854 6.04557 6.36075 5.85328C6.07297 5.66099 5.84866 5.38767 5.71621 5.0679C5.58376 4.74813 5.5491 4.39627 5.61663 4.0568C5.68415 3.71733 5.85082 3.40551 6.09556 3.16077C6.3403 2.91603 6.65213 2.74936 6.99159 2.68183C7.33106 2.61431 7.68293 2.64897 8.0027 2.78142C8.32247 2.91387 8.59578 3.13817 8.78807 3.42596C8.98036 3.71375 9.083 4.05209 9.083 4.39821C9.08221 4.86209 8.89758 5.30675 8.56956 5.63477C8.24154 5.96279 7.79689 6.14742 7.333 6.14821Z" fill="white"></path>
    <path id="Vector_2" d="M16.667 8.89844C15.8495 8.90136 15.0553 9.17174 14.4058 9.66829C13.7564 10.1648 13.2872 10.8603 13.07 11.6484H0V13.6484H13.07C13.2843 14.4384 13.7526 15.1358 14.4027 15.633C15.0528 16.1303 15.8485 16.3997 16.667 16.3997C17.4855 16.3997 18.2812 16.1303 18.9313 15.633C19.5814 15.1358 20.0497 14.4384 20.264 13.6484H24V11.6484H20.264C20.0468 10.8603 19.5776 10.1648 18.9282 9.66829C18.2787 9.17174 17.4845 8.90136 16.667 8.89844ZM16.667 14.3984C16.3209 14.3984 15.9825 14.2958 15.6948 14.1035C15.407 13.9112 15.1827 13.6379 15.0502 13.3181C14.9178 12.9984 14.8831 12.6465 14.9506 12.307C15.0181 11.9676 15.1848 11.6557 15.4296 11.411C15.6743 11.1663 15.9861 10.9996 16.3256 10.9321C16.6651 10.8645 17.0169 10.8992 17.3367 11.0316C17.6565 11.1641 17.9298 11.3884 18.1221 11.6762C18.3144 11.964 18.417 12.3023 18.417 12.6484C18.4165 13.1124 18.2319 13.5572 17.9039 13.8853C17.5758 14.2134 17.131 14.3979 16.667 14.3984Z" fill="white"></path>
    <path id="Vector_3" d="M7.333 17.1484C6.51494 17.1507 5.72013 17.4208 5.07004 17.9174C4.41995 18.414 3.95035 19.1098 3.733 19.8984H0V21.8984H3.736C3.95064 22.6882 4.41917 23.3853 5.06933 23.8824C5.71948 24.3794 6.51512 24.6487 7.3335 24.6487C8.15188 24.6487 8.94752 24.3794 9.59767 23.8824C10.2478 23.3853 10.7164 22.6882 10.931 21.8984H24V19.8984H10.931C10.7137 19.1101 10.2444 18.4145 9.59476 17.918C8.94507 17.4214 8.15072 17.1511 7.333 17.1484ZM7.333 22.6484C6.98688 22.6484 6.64854 22.5458 6.36075 22.3535C6.07297 22.1612 5.84866 21.8879 5.71621 21.5681C5.58376 21.2484 5.5491 20.8965 5.61663 20.557C5.68415 20.2176 5.85082 19.9057 6.09556 19.661C6.3403 19.4163 6.65213 19.2496 6.99159 19.1821C7.33106 19.1145 7.68293 19.1492 8.0027 19.2816C8.32247 19.4141 8.59578 19.6384 8.78807 19.9262C8.98036 20.214 9.083 20.5523 9.083 20.8984C9.08221 21.3623 8.89758 21.807 8.56956 22.135C8.24154 22.463 7.79689 22.6476 7.333 22.6484Z" fill="white"></path>
  </g>
</svg>
