<?xml version="1.0" encoding="UTF-8"?>
<svg xmlns="http://www.w3.org/2000/svg" width="24" height="25" viewBox="0 0 24 25" fill="none">
  <g id="Icon" clip-path="url(#clip0_484_3400)">
    <path id="Vector" d="M23.98 22.2145L16.756 2.61554C16.48 1.86354 15.928 1.26354 15.2 0.927544C14.473 0.589544 13.658 0.556544 12.906 0.833544L11.967 1.17854C11.684 1.28254 11.423 1.42454 11.189 1.60154C10.641 1.01654 9.863 0.649544 9 0.649544H3C1.346 0.648544 0 1.99454 0 3.64854V24.6485H12V9.95354L17.408 24.6255L23.98 22.2145ZM18.593 22.0605L17.628 19.4415L20.444 18.4085L21.409 21.0275L18.593 22.0605ZM16.936 17.5655L13.447 8.09954L16.263 7.06554L19.752 16.5315L16.936 17.5655ZM12.093 3.57354C12.205 3.33154 12.405 3.14654 12.656 3.05454L13.595 2.70954C13.707 2.66854 13.824 2.64754 13.94 2.64754C14.083 2.64754 14.225 2.67854 14.359 2.74054C14.602 2.85254 14.786 3.05254 14.879 3.30454L15.573 5.18854L12.757 6.22254L12.062 4.33754C11.97 4.08654 11.981 3.81654 12.093 3.57354ZM10 3.64854V5.64854H7V2.64854H9C9.551 2.64854 10 3.09654 10 3.64854ZM7 7.64854H10V17.6485H7V7.64854ZM5 17.6485H2V7.64854H5V17.6485ZM3 2.64854H5V5.64854H2V3.64854C2 3.09654 2.449 2.64854 3 2.64854ZM2 19.6485H5V22.6485H2V19.6485ZM7 22.6485V19.6485H10V22.6485H7Z" fill="white"></path>
  </g>
  <defs>
    <clipPath id="clip0_484_3400">
      <rect width="24" height="24" fill="white" transform="translate(0 0.648438)"></rect>
    </clipPath>
  </defs>
</svg>
